:SAMPLES-PER-SECOND 30
:FULLY-SPECIFIED
:DEGREES
164
root  -79.7787 41.728 -7.38282 -176.128 -84.7069 175.797
RightUpLeg  -3.1648 -7.08729 -3.94893
RightLeg  4.41719 -0.155654 3.42557
RightFoot  -0.123176 0.16015 -1.63541
RightToes  1.16414e-010 0 -3.6325e-017
Spine  4.60756 -0.285889 4.39061
Spine1  -2.72082 0.986206 -7.35908
HEad  -7.42978 5.62638 1.0333
LeftShoulder1  0.235326 -0.707509 3.26151
LeftArm  -12.7157 16.1619 -3.64838
LeftForeArm  22.362 -10.0853 -3.27735
LeftHand  -0.244104 0.0205437 5.32207
RightShoulder  0.335059 -0.859302 4.82262
RightArm  -0.177105 -5.28782 -5.84488
RightForeArm  -17.2751 5.21601 10.4355
RightHand  -1.12149 3.84407 -14.3003
LeftUpLeg  -1.94438 4.64794 2.09592
LeftLeg  3.69905 11.176 -3.47466
LeftFoot  -2.36203 -0.179457 2.40925
LeftToes  -6.73059e-011 1.31891e-010 -1.28765e-011
165
root  -79.8244 41.7337 -7.4323 -175.896 -84.7056 175.891
RightUpLeg  -3.39238 -7.00027 -3.83633
RightLeg  4.32539 -0.283542 3.42562
RightFoot  -0.159854 0.168352 -1.73271
RightToes  1.16414e-010 0 -3.6325e-017
Spine  4.49201 -0.237532 4.08159
Spine1  -2.68 0.952905 -6.90477
HEad  -8.1091 5.59597 0.561347
LeftShoulder1  0.268589 -0.693428 2.34926
LeftArm  -10.7387 15.1585 -3.29284
LeftForeArm  18.8595 -8.33472 -4.01764
LeftHand  -0.244104 0.0205437 5.32207
RightShoulder  0.337095 -0.900953 5.13695
RightArm  -0.818908 -5.13824 -5.30258
RightForeArm  -14.8997 4.93913 10.1142
RightHand  -1.06986 3.94482 -13.5145
LeftUpLeg  -2.19353 4.66603 2.16456
LeftLeg  3.62986 11.1653 -3.5085
LeftFoot  -2.31947 -0.176437 2.36363
LeftToes  -6.73059e-011 1.31891e-010 -1.28765e-011
166
root  -79.8749 41.7375 -7.48432 -175.605 -84.7781 176.044
RightUpLeg  -3.75814 -6.87328 -3.68857
RightLeg  4.25578 -0.480713 3.39638
RightFoot  -0.144052 0.16726 -1.71573
RightToes  1.16414e-010 0 -3.6325e-017
Spine  4.22703 -0.165121 3.90959
Spine1  -2.72784 0.972251 -6.6651
HEad  -8.13074 5.33681 0.372191
LeftShoulder1  0.284944 -0.622041 1.77605
LeftArm  -10.2037 14.3193 -2.94836
LeftForeArm  16.8078 -7.10987 -4.22642
LeftHand  -0.244104 0.0205437 5.32207
RightShoulder  0.33941 -0.939865 5.46025
RightArm  -1.43485 -5.22451 -5.13794
RightForeArm  -13.0108 4.59725 9.78806
RightHand  -0.984986 3.64912 -12.8541
LeftUpLeg  -2.5902 4.70136 2.2452
LeftLeg  3.58663 11.1148 -3.56167
LeftFoot  -2.21754 -0.17248 2.29975
LeftToes  -6.73059e-011 1.31891e-010 -1.28765e-011
167
root  -79.9304 41.7423 -7.52965 -175.045 -84.8479 175.778
RightUpLeg  -3.97984 -6.79585 -3.60872
RightLeg  4.25068 -0.604704 3.35912
RightFoot  -0.15458 0.166649 -1.70624
RightToes  1.16414e-010 0 -3.6325e-017
Spine  4.0504 -0.0918825 3.70834
Spine1  -2.7074 1.006 -6.44703
HEad  -7.94419 5.22199 0.249655
LeftShoulder1  0.282191 -0.436816 1.49381
LeftArm  -10.6385 13.6647 -2.71682
LeftForeArm  17.4508 -6.19932 -4.00574
LeftHand  -0.244104 0.0205437 5.32207
RightShoulder  0.333949 -1.001 5.57625
RightArm  -2.00357 -5.23559 -5.11981
RightForeArm  -11.29 3.9739 9.45903
RightHand  -0.831349 2.72876 -12.07
LeftUpLeg  -2.77289 4.72888 2.29535
LeftLeg  3.44635 11.0942 -3.6484
LeftFoot  -2.04313 -0.167638 2.21909
LeftToes  -6.73059e-011 1.31891e-010 -1.28765e-011
168
root  -79.9873 41.7508 -7.55751 -174.613 -84.868 175.413
RightUpLeg  -3.92703 -6.77449 -3.59653
RightLeg  4.19475 -0.632182 3.33497
RightFoot  -0.20271 0.172822 -1.80224
RightToes  1.16414e-010 0 -3.6325e-017
Spine  4.11421 -0.0331453 3.42141
Spine1  -2.71925 1.00207 -6.05782
HEad  -7.61708 5.34488 -0.0188129
LeftShoulder1  0.27468 -0.334389 1.50074
LeftArm  -11.5123 13.533 -2.78118
LeftForeArm  17.8848 -5.46383 -3.60018
LeftHand  -0.244104 0.0205437 5.32207
RightShoulder  0.332276 -0.965262 5.29489
RightArm  -2.55754 -5.0693 -4.99324
RightForeArm  -10.7396 3.06168 9.20301
RightHand  -0.72951 1.78901 -11.9494
LeftUpLeg  -2.66175 4.72555 2.31241
LeftLeg  3.23542 11.1117 -3.71049
LeftFoot  -1.90658 -0.160936 2.10718
LeftToes  -6.73059e-011 1.31891e-010 -1.28765e-011
169
root  -80.0414 41.7597 -7.56835 -174.473 -84.8704 175.279
RightUpLeg  -3.7964 -6.78009 -3.60146
RightLeg  4.08665 -0.620345 3.33651
RightFoot  -0.216179 0.183595 -1.96981
RightToes  1.16414e-010 0 -3.6325e-017
Spine  4.19547 -0.016082 3.2479
Spine1  -2.73155 0.971197 -5.76441
HEad  -7.09208 5.50582 -0.258627
LeftShoulder1  0.264142 -0.356565 1.85492
LeftArm  -12.4436 13.8071 -3.08743
LeftForeArm  17.4905 -4.93023 -3.18462
LeftHand  -0.244104 0.0205437 5.32207
RightShoulder  0.35329 -0.75591 5.03085
RightArm  -2.9539 -4.72208 -4.89916
RightForeArm  -12.5653 1.86994 9.16836
RightHand  -0.820634 1.85602 -13.2867
LeftUpLeg  -2.48795 4.70623 2.31139
LeftLeg  3.04121 11.1188 -3.7314
LeftFoot  -1.86088 -0.15501 2.00571
LeftToes  -6.73059e-011 1.31891e-010 -1.28765e-011
170
root  -80.0905 41.765 -7.57204 -174.138 -84.8994 175.03
RightUpLeg  -3.79237 -6.80636 -3.62196
RightLeg  4.04646 -0.615615 3.35092
RightFoot  -0.207139 0.191738 -2.0965
RightToes  1.16414e-010 0 -3.6325e-017
Spine  3.98583 -0.020696 3.35144
Spine1  -2.47006 0.984738 -5.82283
HEad  -6.54869 5.56116 -0.357377
LeftShoulder1  0.262713 -0.461232 2.09578
LeftArm  -12.5957 14.118 -3.01004
LeftForeArm  17.0871 -5.0283 -3.11093
LeftHand  -0.244104 0.0205437 5.32207
RightShoulder  0.373854 -0.569834 4.90218
RightArm  -3.49692 -4.79692 -5.03228
RightForeArm  -11.99 1.28903 8.91438
RightHand  -0.937069 2.66027 -13.6816
LeftUpLeg  -2.42624 4.68215 2.2856
LeftLeg  2.87897 11.1056 -3.75839
LeftFoot  -1.83893 -0.152488 1.9562
LeftToes  -6.73059e-011 1.31891e-010 -1.28765e-011
171
root  -80.1352 41.7674 -7.57556 -173.505 -84.9743 174.504
RightUpLeg  -3.82824 -6.84543 -3.66738
RightLeg  4.05783 -0.651046 3.35939
RightFoot  -0.243919 0.193755 -2.12789
RightToes  1.16414e-010 0 -3.6325e-017
Spine  3.81152 -0.0478274 3.62855
Spine1  -2.31842 1.01328 -6.12838
HEad  -5.87783 5.55885 -0.360771
LeftShoulder1  0.279834 -0.724529 2.10322
LeftArm  -11.5107 14.4467 -2.41917
LeftForeArm  16.4301 -5.5271 -3.52776
LeftHand  -0.244104 0.0205437 5.32207
RightShoulder  0.39289 -0.36107 4.63677
RightArm  -4.27817 -5.14454 -4.87702
RightForeArm  -11.0166 0.982271 8.52863
RightHand  -0.995929 3.12349 -13.766
LeftUpLeg  -2.40758 4.65922 2.24699
LeftLeg  2.72953 11.0602 -3.80668
LeftFoot  -1.80018 -0.150733 1.91835
LeftToes  -6.73059e-011 1.31891e-010 -1.28765e-011
172
root  -80.1776 41.77 -7.57829 -173.232 -85.1088 174.267
RightUpLeg  -3.74264 -6.86928 -3.69563
RightLeg  3.99573 -0.757187 3.36738
RightFoot  -0.302816 0.193322 -2.12114
RightToes  1.16414e-010 0 -3.6325e-017
Spine  3.79198 -0.118132 3.54813
Spine1  -2.23415 0.890404 -5.8028
HEad  -5.3468 5.62673 -0.598687
LeftShoulder1  0.305985 -0.845502 1.62653
LeftArm  -10.5355 14.7905 -1.74998
LeftForeArm  15.9654 -6.15782 -3.90365
LeftHand  -0.244104 0.0205437 5.32207
RightShoulder  0.413225 -0.0269646 3.94421
RightArm  -5.57221 -5.65033 -4.45381
RightForeArm  -7.90551 1.14305 7.82788
RightHand  -0.850062 2.60996 -12.4739
LeftUpLeg  -2.34801 4.64891 2.24223
LeftLeg  2.63786 10.9353 -3.82863
LeftFoot  -1.7917 -0.14722 1.85357
LeftToes  -6.73059e-011 1.31891e-010 -1.28765e-011
173
root  -80.2169 41.7725 -7.57895 -173.582 -85.2917 174.649
RightUpLeg  -3.62153 -6.8671 -3.67408
RightLeg  3.8656 -0.922293 3.39074
RightFoot  -0.319507 0.193995 -2.13163
RightToes  1.16414e-010 0 -3.6325e-017
Spine  3.90429 -0.189571 3.36916
Spine1  -2.35927 0.721043 -5.25931
HEad  -4.81555 5.62277 -0.836071
LeftShoulder1  0.333521 -0.978015 1.16681
LeftArm  -9.41569 15.1519 -1.24439
LeftForeArm  15.4386 -6.68411 -4.32367
LeftHand  -0.244104 0.0205437 5.32207
RightShoulder  0.444958 0.425138 3.30608
RightArm  -6.81463 -6.38929 -4.25128
RightForeArm  -2.21711 1.7016 6.97971
RightHand  -0.653233 2.39051 -9.97134
LeftUpLeg  -2.34596 4.64947 2.27982
LeftLeg  2.65661 10.7407 -3.80312
LeftFoot  -1.82603 -0.145531 1.8182
LeftToes  -6.73059e-011 1.31891e-010 -1.28765e-011
174
root  -80.2502 41.7732 -7.57873 -173.906 -85.4629 175.114
RightUpLeg  -3.65902 -6.8583 -3.63632
RightLeg  3.78635 -1.08772 3.41955
RightFoot  -0.319711 0.193092 -2.11757
RightToes  1.16414e-010 0 -3.6325e-017
Spine  4.01859 -0.171996 3.29712
Spine1  -2.64415 0.652779 -4.81157
HEad  -4.32606 5.56695 -1.05009
LeftShoulder1  0.372569 -1.2416 0.69825
LeftArm  -8.091 15.3032 -0.787394
LeftForeArm  14.8763 -7.05733 -4.82322
LeftHand  -0.244104 0.0205437 5.32207
RightShoulder  0.43921 0.617585 2.55171
RightArm  -7.67095 -6.55198 -3.58463
RightForeArm  0.361507 1.14608 6.47273
RightHand  -0.664111 3.0932 -9.29113
LeftUpLeg  -2.51307 4.64877 2.31074
LeftLeg  2.74601 10.5688 -3.77699
LeftFoot  -1.83751 -0.149293 1.86938
LeftToes  -6.73059e-011 1.31891e-010 -1.28765e-011
175
root  -80.2779 41.7732 -7.57822 -173.608 -85.5756 175.023
RightUpLeg  -3.82183 -6.85908 -3.63097
RightLeg  3.78083 -1.2125 3.42669
RightFoot  -0.35744 0.188316 -2.04326
RightToes  1.16414e-010 0 -3.6325e-017
Spine  3.93836 -0.148296 3.05793
Spine1  -2.75527 0.572382 -4.22829
HEad  -3.9736 5.75456 -1.32302
LeftShoulder1  0.414253 -1.51461 0.238319
LeftArm  -6.8611 15.5437 -0.401699
LeftForeArm  14.267 -7.48689 -5.27988
LeftHand  -0.244104 0.0205437 5.32207
RightShoulder  0.436254 0.865925 1.79641
RightArm  -8.85904 -6.39024 -2.54294
RightForeArm  -0.259645 0.118028 6.07429
RightHand  -0.752778 3.42404 -10.1458
LeftUpLeg  -2.73534 4.6328 2.29687
LeftLeg  2.77862 10.4857 -3.78964
LeftFoot  -1.77814 -0.155055 1.95408
LeftToes  -6.73059e-011 1.31891e-010 -1.28765e-011
176
root  -80.3069 41.776 -7.57801 -172.935 -85.6608 174.472
RightUpLeg  -3.88756 -6.86757 -3.66003
RightLeg  3.75744 -1.30974 3.40993
RightFoot  -0.40106 0.185054 -1.99251
RightToes  1.16414e-010 0 -3.6325e-017
Spine  3.69324 -0.177695 2.48052
Spine1  -2.45644 0.378409 -3.22646
HEad  -3.97369 6.04366 -1.75208
LeftShoulder1  0.453997 -1.63053 -0.43129
LeftArm  -5.95911 15.9379 -0.0234996
LeftForeArm  13.5923 -8.04841 -5.60809
LeftHand  -0.244104 0.0205437 5.32207
RightShoulder  0.432149 1.19774 0.890462
RightArm  -9.10114 -6.68144 -1.81697
RightForeArm  0.732157 0.37909 5.92474
RightHand  -0.73402 3.61022 -9.70203
LeftUpLeg  -2.78381 4.5839 2.24603
LeftLeg  2.65214 10.461 -3.81109
LeftFoot  -1.66834 -0.157033 1.98318
LeftToes  -6.73059e-011 1.31891e-010 -1.28765e-011
177
root  -80.3442 41.7831 -7.57871 -172.383 -85.7786 173.922
RightUpLeg  -3.76834 -6.8777 -3.69594
RightLeg  3.66123 -1.41177 3.39522
RightFoot  -0.393118 0.188723 -2.04959
RightToes  1.16414e-010 0 -3.6325e-017
Spine  3.52292 -0.241374 1.98913
Spine1  -2.01993 0.176273 -2.37459
HEad  -4.30872 6.12552 -2.11239
LeftShoulder1  0.479715 -1.55565 -1.14848
LeftArm  -5.13312 16.1279 0.357742
LeftForeArm  12.8947 -8.54786 -5.90231
LeftHand  -0.244104 0.0205437 5.32207
RightShoulder  0.413388 1.34258 0.139561
RightArm  -9.20933 -6.52475 -1.11689
RightForeArm  0.462019 0.271448 5.93624
RightHand  -0.748938 3.77022 -9.73138
LeftUpLeg  -2.61763 4.49519 2.18117
LeftLeg  2.38277 10.4311 -3.79455
LeftFoot  -1.54376 -0.155005 1.95165
LeftToes  -6.73059e-011 1.31891e-010 -1.28765e-011
178
root  -80.3861 41.7908 -7.58086 -172.152 -85.9303 173.682
RightUpLeg  -3.60382 -6.88019 -3.71181
RightLeg  3.52948 -1.53502 3.39759
RightFoot  -0.359157 0.193901 -2.13016
RightToes  1.16414e-010 0 -3.6325e-017
Spine  3.73891 -0.290837 1.86996
Spine1  -2.19958 0.070127 -2.06142
HEad  -4.43474 6.15442 -2.27965
LeftShoulder1  0.497462 -1.5588 -1.5365
LeftArm  -3.98965 16.1636 0.700582
LeftForeArm  12.1966 -8.81728 -6.2816
LeftHand  -0.244104 0.0205437 5.32207
RightShoulder  0.394717 1.42016 -0.443528
RightArm  -9.90438 -6.58512 -0.490133
RightForeArm  1.30042 0.152256 5.643
RightHand  -0.730777 3.75701 -9.51555
LeftUpLeg  -2.43391 4.4018 2.13233
LeftLeg  2.11569 10.3675 -3.74764
LeftFoot  -1.43629 -0.152271 1.90913
LeftToes  -6.73059e-011 1.31891e-010 -1.28765e-011
